<svg width="1208" height="700" viewBox="0 0 1208 700" fill="none" xmlns="http://www.w3.org/2000/svg">
<g clip-path="url(#clip0)">
<path d="M1207.79 0H0V700H1207.79V0Z" fill="#C4C4C4"/>
<path d="M1207.79 0H0V700H1207.79V0Z" fill="#10099F"/>
<path d="M568.696 192.901H653.932V322.48H777.816V192.901H863.569V528.494H777.816V393.739H653.932V528.494H568.696V192.901Z" fill="white"/>
<path d="M1014.89 192.901H929.653V528.494H1014.89V192.901Z" fill="white"/>
<path d="M960.365 121.469H1031.28L986.764 173.404H936.554L960.365 121.469Z" fill="white"/>
<path d="M306.433 369.411C322.48 394.774 343.185 402.884 365.097 397.708C365.443 397.535 365.443 397.017 365.097 397.017C344.565 395.81 319.892 373.207 304.708 351.639C294.701 337.491 270.89 319.546 258.985 320.582C258.64 320.754 251.565 321.789 251.565 321.789C241.213 323.342 226.202 324.205 209.465 324.378C202.218 324.55 192.901 330.762 193.074 341.287C194.454 349.569 203.081 347.843 207.05 346.29C213.434 343.875 217.23 339.906 225.512 340.769C243.801 342.494 260.883 360.784 280.207 365.788C282.45 366.995 282.623 367.34 282.623 368.203C282.623 370.964 281.242 370.964 280.035 370.619C269.682 367.513 256.396 373.552 247.424 370.101C240.523 367.513 240.005 365.96 234.829 361.301C228.79 355.953 221.543 347.326 210.155 355.953C208.948 356.988 207.05 358.196 205.669 358.541C202.564 359.231 199.458 358.886 196.352 357.333C196.18 357.333 196.18 357.333 196.18 357.506C197.732 358.886 199.285 360.784 199.975 363.199C201.183 367.34 200.148 370.446 200.148 370.446L198.768 374.069C198.423 374.76 198.25 375.45 198.078 376.14L197.56 377.348C193.591 387.873 185.827 411.511 187.725 416.17C190.486 423.071 203.771 418.067 211.536 418.24C215.849 418.413 219.99 420.828 221.716 420.656C224.649 420.311 224.994 417.205 223.786 415.134C222.923 413.754 220.853 412.201 218.782 411.511C216.885 410.821 213.951 411.856 213.261 410.131C214.641 406.68 221.716 408.923 224.476 410.476C226.202 411.511 237.589 420.138 228.1 431.008C226.892 432.388 222.406 434.114 218.955 434.286C217.23 428.42 210.673 430.318 207.222 432.216C204.634 433.596 204.807 438.6 204.462 441.706C204.116 443.604 204.116 444.294 203.426 446.192C202.909 448.09 203.081 449.643 203.081 449.643C207.912 449.125 210.673 446.364 213.606 445.502C216.194 444.811 219.128 447.572 221.716 448.607C227.927 451.195 233.103 452.403 241.385 452.231C240.178 458.097 233.794 458.787 231.205 458.96C227.755 458.96 224.476 456.889 220.68 456.889C216.712 456.889 213.089 458.96 209.293 458.787C209.12 458.787 209.12 458.96 209.12 459.132C209.81 459.995 210.5 461.375 210.673 462.066C211.018 464.136 208.948 466.379 208.43 468.45C208.43 468.622 208.603 468.795 208.775 468.622C210.846 465.689 215.677 464.999 220.853 464.999C224.994 464.999 228.445 466.207 231.551 464.999C233.103 464.481 233.103 462.583 234.656 462.928C235.864 463.101 235.864 465.689 235.692 466.207C234.139 471.21 228.617 473.626 224.476 476.041C224.304 476.214 221.198 478.63 220.508 481.735C219.3 486.221 219.818 486.911 220.163 489.327C221.371 494.676 225.684 506.754 251.91 498.817C256.224 497.436 295.046 489.845 314.198 470.865C314.37 470.693 335.248 448.262 314.025 419.448C310.229 414.099 309.367 411.511 309.367 406.68C310.747 388.735 309.367 377.003 305.226 368.031C305.398 368.203 306.088 368.721 306.433 369.411ZM210.328 362.164C210.155 361.474 209.638 360.611 209.638 359.921C212.226 358.023 216.539 358.023 219.645 358.713C226.374 360.266 230.515 368.203 235.346 370.274C233.276 372.172 230.343 373.552 226.202 374.415C226.892 373.034 228.1 369.066 224.476 366.65C223.786 370.101 221.198 370.964 219.3 371.999C218.955 373.207 219.128 373.552 219.128 374.069C217.057 372.517 217.23 372.344 216.539 369.928C217.747 369.411 218.092 368.548 218.265 367.513C219.128 362.682 214.296 360.784 210.328 362.164ZM242.248 377.003C241.903 377.865 240.868 380.454 240.178 381.316C236.899 385.285 230.688 388.218 225.684 386.147C222.578 384.94 215.332 382.524 218.265 377.865C226.029 381.661 232.931 375.622 237.935 372.344C239.487 373.034 240.695 373.724 241.558 374.242C242.766 374.76 242.766 375.45 242.248 377.003Z" fill="white"/>
<path d="M423.244 443.604C459.823 453.784 440.671 474.316 454.474 486.221C457.58 482.598 460.34 478.975 463.101 475.351C456.889 462.066 460.168 446.882 423.416 443.086C422.899 442.913 422.899 443.431 423.244 443.604Z" fill="white"/>
<path d="M431.181 509.169C429.801 508.134 428.248 507.099 426.867 505.891C425.487 504.856 419.103 499.334 417.723 498.299C417.723 503.993 418.24 511.93 417.895 519.349C422.381 516.071 426.867 512.62 431.181 509.169Z" fill="white"/>
<path d="M404.437 527.631C406.853 514.346 407.888 497.609 404.437 488.119C398.743 484.151 394.257 481.908 388.218 478.457C386.493 496.574 380.971 514 372.689 530.219C370.619 534.36 367.513 539.709 364.235 544.885C378.383 540.744 391.841 534.878 404.437 527.631Z" fill="white"/>
<path d="M370.964 494.503C375.45 481.908 366.478 474.489 370.619 450.333L370.964 447.054C362.337 444.466 343.702 444.121 339.389 451.195C330.934 464.826 327.484 525.043 294.183 552.477C299.014 552.822 304.018 552.995 309.022 552.995C318.511 552.995 328.001 552.305 337.146 550.924C350.086 540.054 360.784 523.318 370.964 494.503Z" fill="white"/>
<path d="M161.326 320.064C157.875 318.511 161.154 313.853 168.228 304.018C220.508 232.413 359.749 271.925 368.721 270.545C375.277 269.509 279.862 220.163 209.465 257.259C197.215 263.643 168.228 275.721 166.33 270.545C166.33 270.545 200.321 253.463 215.159 240.005C216.022 239.142 220.68 235.519 224.994 232.758C251.738 216.712 282.623 209.12 314.025 211.018C398.398 216.022 463.101 287.454 458.097 370.101C457.752 375.622 457.062 381.144 456.199 386.492C452.231 381.316 448.607 376.485 448.435 375.622C448.435 375.622 459.478 242.075 318.166 220.68C292.458 216.712 265.196 220.853 246.389 231.895C252.601 231.55 258.812 231.378 263.816 230.515C329.036 219.473 439.635 258.294 435.667 359.576C435.494 362.854 392.531 294.355 324.723 281.587C248.632 267.266 213.089 288.834 213.089 288.834C213.089 288.834 263.471 282.45 317.476 293.148C379.418 305.398 426.695 353.882 451.196 401.158C449.47 404.609 429.283 402.884 424.107 396.672C408.233 377.175 365.96 326.276 311.092 313.335C199.458 286.764 165.64 322.135 161.326 320.064Z" fill="white"/>
<path d="M369.756 370.619C351.294 370.964 339.044 336.283 306.778 324.55C306.433 324.378 306.606 323.86 306.951 323.86C345.428 327.656 354.745 358.713 369.929 369.928C370.101 370.274 370.101 370.619 369.756 370.619ZM370.101 386.32C352.329 379.073 316.268 326.793 284.176 322.652C283.83 322.652 283.658 323.17 284.003 323.342C309.712 334.557 345.6 386.147 369.929 387.01C370.446 386.838 370.446 386.32 370.101 386.32ZM373.897 432.906C355.78 400.468 336.11 432.388 314.543 389.081C314.37 388.735 313.853 388.908 313.853 389.253C319.547 445.502 356.815 422.381 373.379 433.251C373.724 433.596 374.07 433.251 373.897 432.906Z" fill="white"/>
<path d="M441.188 498.127C420.483 470.175 383.042 474.489 387.01 444.294C387.01 443.949 387.528 443.949 387.7 444.121C395.982 463.446 431.353 444.811 441.878 497.782C441.706 498.127 441.361 498.299 441.188 498.127Z" fill="white"/>
<path d="M415.652 448.435C340.079 414.789 400.986 389.771 375.795 363.027C375.795 362.854 375.795 362.854 375.967 362.854C413.927 394.947 367.513 417.895 415.997 447.745C416.342 448.09 415.997 448.607 415.652 448.435Z" fill="white"/>
<path d="M468.622 453.611C459.477 418.585 396.155 440.843 404.092 393.222C404.092 392.876 404.609 392.876 404.782 393.222C417.032 435.667 474.834 389.943 469.312 453.611C469.14 453.784 468.622 453.956 468.622 453.611Z" fill="white"/>
<path d="M462.756 395.81C464.654 387.7 465.862 379.246 466.379 370.791C471.556 283.658 403.574 208.602 314.716 203.254C282.45 201.356 250.875 208.775 223.096 224.821C222.751 224.821 222.406 224.994 222.061 224.994L207.05 200.32C241.04 178.753 280.207 168.745 320.582 171.161C425.832 177.372 506.236 268.129 500.025 373.207C498.645 397.017 492.951 419.62 483.288 440.843C479.492 426.177 472.763 411.338 462.756 395.81Z" fill="white"/>
</g>
<defs>
<clipPath id="clip0">
<rect width="1207.79" height="700" fill="white"/>
</clipPath>
</defs>
</svg>
